<svg id="Layer_1" data-name="Layer 1" xmlns="http://www.w3.org/2000/svg" viewBox="0 0 250 65.27"><path d="M204.61,245.37h5.14v10.2l9.46-10.2h6.21l-9.51,9.9,9.94,13.44h-6.17l-7.23-9.94-2.7,2.8v7.14h-5.14Z" transform="translate(-125 -217.37)" fill="#545454"/><path d="M243,245.2h4.73l10,23.51h-5.37l-2.14-5.24h-9.86l-2.14,5.24H233Zm5.4,13.74-3.1-7.57-3.1,7.57Z" transform="translate(-125 -217.37)" fill="#545454"/><path d="M268,245.37h9.54c5.57,0,8.93,3.3,8.93,8.06v.07c0,5.4-4.2,8.2-9.43,8.2h-3.9v7H268Zm9.21,11.77c2.56,0,4.06-1.54,4.06-3.54v-.07c0-2.3-1.6-3.53-4.16-3.53h-4v7.14Z" transform="translate(-125 -217.37)" fill="#545454"/><path d="M302.38,250.1h-7.1v-4.73h19.34v4.73h-7.1v18.61h-5.14Z" transform="translate(-125 -217.37)" fill="#545454"/><path d="M330.24,245.2H335l10,23.51h-5.37l-2.14-5.24H327.6l-2.13,5.24h-5.23Zm5.4,13.74-3.1-7.57-3.1,7.57Z" transform="translate(-125 -217.37)" fill="#545454"/><path d="M355.26,245.37h5.14v9.23h9.47v-9.23H375v23.34h-5.13v-9.37H360.4v9.37h-5.14Z" transform="translate(-125 -217.37)" fill="#545454"/><path d="M147.37,246.51q.93-1,2-1.89c3.65-3.3,10.52-8.6,18.52-10.43l-.21-.16a26.8,26.8,0,0,0-20.4-4.75c-.71-18.53,8.56-.11,8.56-.11-10.59-24.41-10.64-4-10.56,0,0,.27,0,.46,0,.56v.08h0q.3,8.56,1.13,16.25l.14,1.34.38-.4C147.05,246.84,147.19,246.68,147.37,246.51Z" transform="translate(-125 -217.37)" fill="#71009b"/><path d="M175.82,241.91l-1-.11h0a13.88,13.88,0,0,0-4.48-.15l-.34,0h-.08l-1.11.15q-8.73,1.52-16.92,10.34c-.69.76-1.33,1.5-1.94,2.22l-.1.13a39.17,39.17,0,0,0,5.09,5.81q7.71,7.39,15.51,9.28h0l.12,0,.47.1c.46.1.91.2,1.37.27s.92.12,1.36.16l.7.09a32.23,32.23,0,0,0,4.67.24c5.73-.17,10.36-2.59-.46-13.19,0,0,11.1,12.22-2.52,9.9a26.92,26.92,0,0,0-.25-23.46c9.68,1,2.56,8.23,2.56,8.23C185.87,244.79,180.75,242.57,175.82,241.91Z" transform="translate(-125 -217.37)" fill="#71009b"/><path d="M136,277.48l.87.61c-.33-.22-.65-.46-1-.69Z" transform="translate(-125 -217.37)" fill="#545454"/><path d="M134.67,276.44l-.49-.43Z" transform="translate(-125 -217.37)" fill="#545454"/><path d="M137.9,278.74l-.87-.55Z" transform="translate(-125 -217.37)" fill="#545454"/><path d="M138.92,279.33l-.58-.33Z" transform="translate(-125 -217.37)" fill="#545454"/><path d="M139.73,279.76l-.25-.12Z" transform="translate(-125 -217.37)" fill="#545454"/><path d="M133.53,275.43l-.64-.62Z" transform="translate(-125 -217.37)" fill="#545454"/><path d="M127.27,266.66a26.74,26.74,0,0,0,5.24,7.77,26.82,26.82,0,0,1-5.21-7.78Z" transform="translate(-125 -217.37)" fill="#545454"/><path d="M138.58,249a88.71,88.71,0,0,1-.5-16.33,26.93,26.93,0,0,0-5.57,41.73l.38.38.64.62.65.58.49.43q.6.49,1.23,1c.32.23.64.47,1,.69l.16.1.87.55.44.26.58.33.56.31.25.12a26.9,26.9,0,0,0,26.2-1.12,37.67,37.67,0,0,1-16.59-13.72q1.31,7.11,2.48,12.77l-.32,0q-2.35.25-5.06-2.86Q140.64,268.2,138.58,249Z" transform="translate(-125 -217.37)" fill="#545454"/></svg>